<?xml version="1.0" encoding="UTF-8"?>
<!-- Generated by jsxcad -->
<!DOCTYPE svg PUBLIC "-//W3C//DTD SVG 1.1 Tiny//EN" "http://www.w3.org/Graphics/SVG/1.1/DTD/svg11-tiny.dtd">
<svg viewBox="-250 -250 500 500" width="500" height="500" xmlns="http://www.w3.org/2000/svg"><path d="M-25.76089206893373,-104.35875464472899L106.74863833914293,-166.03556277432062L-25.11915609401207,-127.69455969529744z" style="fill:rgb(83,212,212)"/><path d="M-129.42979828269918,-34.97081572027892L-112.97612635536657,100.82309576331141L-103.66489197168134,6.7070252434217075z" style="fill:rgb(247,158,158)"/><path d="M-163.93690076322915,-25.48742885822894L-141.5673760641671,59.38283445965554L-129.42979828269918,-34.97081572027892z" style="fill:rgb(83,212,212)"/><path d="M-30.9830284107142,85.53675395137003L-4.3666327011415875,-60.722673544724984L-25.76089206893373,-104.35875464472899z" style="fill:rgb(247,158,158)"/><path d="M-124.1094074273337,-76.32983141881346L-31.96521001219484,121.2523869276816L-25.11915609401207,-127.69455969529744z" style="fill:rgb(83,212,212)"/><path d="M-112.97612635536657,100.82309576331141L-129.42979828269918,-34.97081572027892L-141.5673760641671,59.38283445965554z" style="fill:rgb(247,158,158)"/><path d="M106.74863833914293,-166.03556277432062L-25.76089206893373,-104.35875464472899L-30.9830284107142,85.53675395137003zM-141.5673760641671,59.38283445965554L-163.93690076322915,-25.48742885822894L-179.16245114061016,68.83858642891488z" style="fill:rgb(83,212,212)"/><path d="M144.46867089219873,39.25455393814748L123.20791850533378,-119.73842745624945L143.56714449134915,32.51272665556047z" style="fill:rgb(0,127,127)"/><path d="M-129.42979828269918,-34.97081572027892L-31.96521001219484,121.2523869276816L-124.1094074273337,-76.32983141881346z" style="fill:rgb(83,212,212)"/><path d="M-141.5673760641671,59.38283445965554L-149.26331892734956,109.5012711972745L-112.97612635536657,100.82309576331141z" style="fill:rgb(127,37,217)"/><path d="M137.06724182032082,82.5037945085858L123.20791850533378,-119.73842745624945L106.74863833914293,-166.03556277432062z" style="fill:rgb(247,158,158)"/><path d="M-149.26331892734956,109.5012711972745L-141.5673760641671,59.38283445965554L-179.16245114061016,68.83858642891488z" style="fill:rgb(127,37,217)"/><path d="M-4.3666327011415875,-60.722673544724984L-30.9830284107142,85.53675395137003L-5.211586664466507,128.98593571613173zM169.8328446829442,-18.93922902240415L170.02689241082402,-65.12552656468566L154.21745951695323,-112.92396396269032z" style="fill:rgb(247,158,158)"/><path d="M-141.5673760641671,59.38283445965554L-31.96521001219484,121.2523869276816L-129.42979828269918,-34.97081572027892zM114.55718133905937,-102.02435174145802L169.8328446829442,-18.93922902240415L154.21745951695323,-112.92396396269032z" style="fill:rgb(83,212,212)"/><path d="M170.02689241082402,-65.12552656468566L169.8328446829442,-18.93922902240415L186.46136457442898,29.211901575880418z" style="fill:rgb(247,158,158)"/><path d="M-30.9830284107142,85.53675395137003L-118.28849349706107,154.51943034570553L-5.211586664466507,128.98593571613173z" style="fill:rgb(127,37,217)"/><path d="M169.8328446829442,-18.93922902240415L114.55718133905937,-102.02435174145802L126.03625053296466,-7.923694757079399z" style="fill:rgb(83,212,212)"/><path d="M169.8328446829442,-18.93922902240415L144.46867089219873,39.25455393814748L186.46136457442898,29.211901575880418zM-118.28849349706107,154.51943034570553L-30.9830284107142,85.53675395137003L-148.53183308014798,113.52229999549895z" style="fill:rgb(127,37,217)"/><path d="M123.20791850533378,-119.73842745624945L137.06724182032082,82.5037945085858L156.49716114032398,129.2064876982534z" style="fill:rgb(247,158,158)"/><path d="M106.74863833914293,-166.03556277432062L-30.9830284107142,85.53675395137003L137.06724182032082,82.5037945085858zM-31.96521001219484,121.2523869276816L-141.5673760641671,59.38283445965554L-148.53183308014798,113.52229999549895z" style="fill:rgb(83,212,212)"/><path d="M144.46867089219873,39.25455393814748L169.8328446829442,-18.93922902240415L126.03625053296466,-7.923694757079399zM137.06724182032082,82.5037945085858L-5.369061699995411,164.3421569919382L156.49716114032398,129.2064876982534zM-5.369061699995411,164.3421569919382L137.06724182032082,82.5037945085858L-31.96521001219484,121.2523869276816z" style="fill:rgb(127,37,217)"/><path d="M137.06724182032082,82.5037945085858L-30.9830284107142,85.53675395137003L-31.96521001219484,121.2523869276816z" style="fill:rgb(83,212,212)"/></svg>
