<?xml version="1.0" encoding="UTF-8"?>
<!-- Generated by jsxcad -->
<!DOCTYPE svg PUBLIC "-//W3C//DTD SVG 1.1 Tiny//EN" "http://www.w3.org/Graphics/SVG/1.1/DTD/svg11-tiny.dtd">
<svg viewBox="-250 -250 500 500" width="500" height="500" xmlns="http://www.w3.org/2000/svg"><path d="M-70.04060382723831,-78.10690465824665L-58.153665248421206,123.41126201385256L-49.94422152162298,-40.9829634940518zM-122.39711481629693,51.355644617581106L-91.12186654438227,5.908102386595835L-113.2176006445201,-30.577376186665077z" style="fill:rgb(247,158,158)"/><path d="M-163.01472888536566,-17.003950806447598L-122.39711481629693,51.355644617581106L-113.2176006445201,-30.577376186665077zM-109.12551408689815,-67.10185759635655L-82.01565738440414,86.5417880355084L-70.04060382723831,-78.10690465824665z" style="fill:rgb(83,212,212)"/><path d="M-91.12186654438227,5.908102386595835L-122.39711481629693,51.355644617581106L-98.23882880803804,87.68469760576056z" style="fill:rgb(247,158,158)"/><path d="M-113.2176006445201,-30.577376186665077L-82.01565738440414,86.5417880355084L-109.12551408689815,-67.10185759635655z" style="fill:rgb(83,212,212)"/><path d="M92.14762391811162,-158.32700292646038L135.7617090494973,130.53356002021218L106.91628285250586,-118.4081430076096z" style="fill:rgb(247,158,158)"/><path d="M-122.39711481629693,51.355644617581106L-163.01472888536566,-17.003950806447598L-176.0510047900098,64.89427045146303z" style="fill:rgb(83,212,212)"/><path d="M-122.39711481629693,51.355644617581106L-150.26848410276196,100.25440453594017L-98.23882880803804,87.68469760576056z" style="fill:rgb(127,37,217)"/><path d="M-67.57399465525341,-112.0210724417148L118.10513721144414,90.35032894655913L92.14762391811162,-158.32700292646038z" style="fill:rgb(83,212,212)"/><path d="M-150.26848410276196,100.25440453594017L-122.39711481629693,51.355644617581106L-176.0510047900098,64.89427045146303z" style="fill:rgb(127,37,217)"/><path d="M-58.153665248421206,123.41126201385256L-70.04060382723831,-78.10690465824665L-82.01565738440414,86.5417880355084zM156.23652031267036,-104.02368982050707L184.2446418770074,19.440254466126593L170.01571576241597,-62.46490363411149z" style="fill:rgb(247,158,158)"/><path d="M-82.01565738440414,86.5417880355084L-113.2176006445201,-30.577376186665077L-127.56865242567517,97.51491972203976zM107.96720082263013,-6.772794051473666L156.23652031267036,-104.02368982050707L99.43212393412838,-88.54026310827317z" style="fill:rgb(83,212,212)"/><path d="M-82.01565738440414,86.5417880355084L-102.231148560975,133.55796885688488L-58.153665248421206,123.41126201385256z" style="fill:rgb(127,37,217)"/><path d="M184.2446418770074,19.440254466126593L156.23652031267036,-104.02368982050707L169.8473415149474,-22.387172547916816z" style="fill:rgb(247,158,158)"/><path d="M-102.231148560975,133.55796885688488L-82.01565738440414,86.5417880355084L-127.56865242567517,97.51491972203976z" style="fill:rgb(127,37,217)"/><path d="M156.23652031267036,-104.02368982050707L107.96720082263013,-6.772794051473666L169.8473415149474,-22.387172547916816z" style="fill:rgb(83,212,212)"/><path d="M169.8473415149474,-22.387172547916816L124.55985464052081,33.85934581524676L184.2446418770074,19.440254466126593z" style="fill:rgb(127,37,217)"/><path d="M118.10513721144414,90.35032894655913L-67.57399465525341,-112.0210724417148L-85.67780608614237,136.89379634285496z" style="fill:rgb(83,212,212)"/><path d="M124.55985464052081,33.85934581524676L169.8473415149474,-22.387172547916816L107.96720082263013,-6.772794051473666z" style="fill:rgb(127,37,217)"/><path d="M135.7617090494973,130.53356002021218L92.14762391811162,-158.32700292646038L118.10513721144414,90.35032894655913z" style="fill:rgb(247,158,158)"/><path d="M-60.645786505273406,173.31601557962284L118.10513721144414,90.35032894655913L-85.67780608614237,136.89379634285496zM118.10513721144414,90.35032894655913L-60.645786505273406,173.31601557962284L135.7617090494973,130.53356002021218z" style="fill:rgb(127,37,217)"/></svg>
