<?xml version="1.0" encoding="UTF-8"?>
<!-- Generated by jsxcad -->
<!DOCTYPE svg PUBLIC "-//W3C//DTD SVG 1.1 Tiny//EN" "http://www.w3.org/Graphics/SVG/1.1/DTD/svg11-tiny.dtd">
<svg viewBox="-250 -250 500 500" width="500" height="500" xmlns="http://www.w3.org/2000/svg"><path d="M-21.777950856752913,-125.29809465840111L-22.58238454965435,-91.4696019178596L92.14762391811162,-158.32700292646038z" style="fill:rgb(83,212,212)"/><path d="M-122.39711481629693,51.355644617581106L-91.12186654438227,5.908102386595835L-113.2176006445201,-30.577376186665077z" style="fill:rgb(247,158,158)"/><path d="M-163.01472888536566,-17.003950806447598L-122.39711481629693,51.355644617581106L-113.2176006445201,-30.577376186665077z" style="fill:rgb(83,212,212)"/><path d="M-91.12186654438227,5.908102386595835L-122.39711481629693,51.355644617581106L-98.23882880803804,87.68469760576056zM-26.497431978109702,73.16816760932032L-3.8459260474321146,-53.4692760652185L-22.58238454965435,-91.4696019178596z" style="fill:rgb(247,158,158)"/><path d="M-109.12551408689815,-67.10185759635655L-26.497431978109702,73.16816760932032L-22.58238454965435,-91.4696019178596zM-113.2176006445201,-30.577376186665077L-26.497431978109702,73.16816760932032L-109.12551408689815,-67.10185759635655z" style="fill:rgb(83,212,212)"/><path d="M92.14762391811162,-158.32700292646038L135.7617090494973,130.53356002021218L106.91628285250586,-118.4081430076096z" style="fill:rgb(247,158,158)"/><path d="M-122.39711481629693,51.355644617581106L-163.01472888536566,-17.003950806447598L-176.0510047900098,64.89427045146303z" style="fill:rgb(83,212,212)"/><path d="M-122.39711481629693,51.355644617581106L-150.26848410276196,100.25440453594017L-98.23882880803804,87.68469760576056zM-150.26848410276196,100.25440453594017L-122.39711481629693,51.355644617581106L-176.0510047900098,64.89427045146303z" style="fill:rgb(127,37,217)"/><path d="M92.14762391811162,-158.32700292646038L-22.58238454965435,-91.4696019178596L118.10513721144414,90.35032894655913z" style="fill:rgb(83,212,212)"/><path d="M156.23652031267036,-104.02368982050707L184.2446418770074,19.440254466126593L170.01571576241597,-62.46490363411149zM-3.8459260474321146,-53.4692760652185L-26.497431978109702,73.16816760932032L-4.486595928101707,111.0570170513169z" style="fill:rgb(247,158,158)"/><path d="M-122.39711481629693,51.355644617581106L-26.497431978109702,73.16816760932032L-113.2176006445201,-30.577376186665077z" style="fill:rgb(83,212,212)"/><path d="M-22.58238454965435,-91.4696019178596L-26.497431978109702,73.16816760932032L-25.60946307779737,35.82680618362907z" style="fill:rgb(255,127,127)"/><path d="M107.96720082263013,-6.772794051473666L156.23652031267036,-104.02368982050707L99.43212393412838,-88.54026310827317z" style="fill:rgb(83,212,212)"/><path d="M184.2446418770074,19.440254466126593L156.23652031267036,-104.02368982050707L169.8473415149474,-22.387172547916816z" style="fill:rgb(247,158,158)"/><path d="M-26.497431978109702,73.16816760932032L-102.231148560975,133.55796885688488L-4.486595928101707,111.0570170513169z" style="fill:rgb(127,37,217)"/><path d="M-25.60946307779737,35.82680618362907L118.10513721144414,90.35032894655913L-22.58238454965435,-91.4696019178596zM-26.497431978109702,73.16816760932032L-122.39711481629693,51.355644617581106L-127.56865242567517,97.51491972203976z" style="fill:rgb(83,212,212)"/><path d="M-102.231148560975,133.55796885688488L-26.497431978109702,73.16816760932032L-127.56865242567517,97.51491972203976z" style="fill:rgb(127,37,217)"/><path d="M156.23652031267036,-104.02368982050707L107.96720082263013,-6.772794051473666L169.8473415149474,-22.387172547916816z" style="fill:rgb(83,212,212)"/><path d="M169.8473415149474,-22.387172547916816L124.55985464052081,33.85934581524676L184.2446418770074,19.440254466126593zM124.55985464052081,33.85934581524676L169.8473415149474,-22.387172547916816L107.96720082263013,-6.772794051473666z" style="fill:rgb(127,37,217)"/><path d="M135.7617090494973,130.53356002021218L92.14762391811162,-158.32700292646038L118.10513721144414,90.35032894655913z" style="fill:rgb(247,158,158)"/><path d="M118.10513721144414,90.35032894655913L-25.60946307779737,35.82680618362907L-27.697909902684238,123.65134337955104z" style="fill:rgb(83,212,212)"/><path d="M118.10513721144414,90.35032894655913L-4.681564378907466,161.1256149516249L135.7617090494973,130.53356002021218zM-4.681564378907466,161.1256149516249L118.10513721144414,90.35032894655913L-27.697909902684238,123.65134337955104z" style="fill:rgb(127,37,217)"/></svg>
